<?xml version="1.0" encoding="utf-8"?>
<!-- Generator: Adobe Illustrator 21.1.0, SVG Export Plug-In . SVG Version: 6.00 Build 0)  -->
<svg version="1.1" id="Layer_1" xmlns="http://www.w3.org/2000/svg" xmlns:xlink="http://www.w3.org/1999/xlink" x="0px" y="0px"
	 viewBox="0 0 914 304" style="enable-background:new 0 0 914 304;" xml:space="preserve">
<style type="text/css">
	.st0{clip-path:url(#SVGID_2_);}
	.st1{clip-path:url(#SVGID_4_);fill:#FFFFFF;}
	.st2{clip-path:url(#SVGID_6_);fill:#FFFFFF;}
	.st3{clip-path:url(#SVGID_6_);fill:none;stroke:#4472C4;stroke-width:6;stroke-miterlimit:8;}
	.st4{clip-path:url(#SVGID_6_);fill:#4472C4;}
	.st5{clip-path:url(#SVGID_6_);fill:none;stroke:#2F528F;stroke-width:6;stroke-miterlimit:8;}
	.st6{clip-path:url(#SVGID_6_);}
	.st7{fill:#FFFFFF;}
	.st8{font-family:'Verdana-Bold';}
	.st9{font-size:14px;}
	.st10{clip-path:url(#SVGID_6_);fill-rule:evenodd;clip-rule:evenodd;fill:#4472C4;}
	.st11{clip-path:url(#SVGID_6_);fill-rule:evenodd;clip-rule:evenodd;fill:#CFD5EA;}
	.st12{clip-path:url(#SVGID_6_);fill-rule:evenodd;clip-rule:evenodd;fill:#E9EBF5;}
	.st13{clip-path:url(#SVGID_6_);fill:none;stroke:#FFFFFF;stroke-linejoin:round;stroke-miterlimit:10;}
	.st14{clip-path:url(#SVGID_6_);fill:none;stroke:#FFFFFF;stroke-width:3;stroke-linejoin:round;stroke-miterlimit:10;}
	.st15{font-family:'Verdana';}
</style>
<g>
	<defs>
		<rect id="SVGID_1_" x="-27" y="-30" width="959.8" height="540"/>
	</defs>
	<clipPath id="SVGID_2_">
		<use xlink:href="#SVGID_1_"  style="overflow:visible;"/>
	</clipPath>
	<g class="st0">
		<defs>
			<rect id="SVGID_3_" x="-27" y="-30" width="960" height="540"/>
		</defs>
		<clipPath id="SVGID_4_">
			<use xlink:href="#SVGID_3_"  style="overflow:visible;"/>
		</clipPath>
		<rect x="-27" y="-30" class="st1" width="959.8" height="540"/>
	</g>
</g>
<g>
	<defs>
		<rect id="SVGID_5_" x="-27" y="-30" width="960" height="540"/>
	</defs>
	<clipPath id="SVGID_6_">
		<use xlink:href="#SVGID_5_"  style="overflow:visible;"/>
	</clipPath>
	<rect x="-27" y="-30" class="st2" width="960" height="540"/>
	<polyline class="st3" points="32.8,132.7 32.8,165.9 56.7,165.9 	"/>
	<polyline class="st3" points="105.7,165.9 129.6,165.9 129.6,101.8 	"/>
	<polyline class="st3" points="226.3,57.2 226.3,197.3 250.2,197.3 	"/>
	<polyline class="st3" points="299.2,197.3 323.1,197.3 323.1,107.5 	"/>
	<polyline class="st3" points="81.2,190.4 81.2,271.6 153.5,271.6 	"/>
	<polyline class="st3" points="202.4,271.6 274.7,271.6 274.7,221.8 	"/>
	<circle class="st4" cx="81.2" cy="165.9" r="24.5"/>
	<circle class="st5" cx="81.2" cy="165.9" r="24.5"/>
	<g class="st6">
		<text transform="matrix(1 0 0 1 71.1812 171.6001)"><tspan x="0" y="0" class="st7 st8 st9">n</tspan><tspan x="10" y="0" class="st7 st8 st9">1</tspan></text>
	</g>
	<circle class="st4" cx="32.8" cy="108.2" r="24.5"/>
	<circle class="st5" cx="32.8" cy="108.2" r="24.5"/>
	<g class="st6">
		<text transform="matrix(1 0 0 1 27.7378 113.7603)" class="st7 st8 st9">C</text>
	</g>
	<circle class="st4" cx="129.6" cy="77.3" r="24.5"/>
	<circle class="st5" cx="129.6" cy="77.3" r="24.5"/>
	<g class="st6">
		<text transform="matrix(1 0 0 1 123.7495 83.04)" class="st7 st8 st9">D</text>
	</g>
	<circle class="st4" cx="177.9" cy="271.6" r="24.5"/>
	<circle class="st5" cx="177.9" cy="271.6" r="24.5"/>
	<g class="st6">
		<text transform="matrix(1 0 0 1 167.9429 277.2002)"><tspan x="0" y="0" class="st7 st8 st9">n</tspan><tspan x="10" y="0" class="st7 st8 st9">3</tspan></text>
	</g>
	<circle class="st4" cx="226.3" cy="32.8" r="24.5"/>
	<circle class="st5" cx="226.3" cy="32.8" r="24.5"/>
	<g class="st6">
		<text transform="matrix(1 0 0 1 221.7612 38.4004)" class="st7 st8 st9">F</text>
	</g>
	<circle class="st4" cx="274.7" cy="197.3" r="24.5"/>
	<circle class="st5" cx="274.7" cy="197.3" r="24.5"/>
	<g class="st6">
		<text transform="matrix(1 0 0 1 264.7046 203.04)"><tspan x="0" y="0" class="st7 st8 st9">n</tspan><tspan x="10" y="0" class="st7 st8 st9">2</tspan></text>
	</g>
	<circle class="st4" cx="323.1" cy="83.1" r="24.5"/>
	<circle class="st5" cx="323.1" cy="83.1" r="24.5"/>
	<g class="st6">
		<text transform="matrix(1 0 0 1 317.3979 88.5601)" class="st7 st8 st9">G</text>
	</g>
	<rect x="372" y="8.7" class="st10" width="76.1" height="35.9"/>
	<rect x="448.2" y="8.7" class="st10" width="76.1" height="35.9"/>
	<rect x="524.3" y="8.7" class="st10" width="76.1" height="35.9"/>
	<rect x="600.4" y="8.7" class="st10" width="76.1" height="35.9"/>
	<rect x="676.5" y="8.7" class="st10" width="76.1" height="35.9"/>
	<rect x="752.6" y="8.7" class="st10" width="76.1" height="35.9"/>
	<rect x="828.7" y="8.7" class="st10" width="76.1" height="35.9"/>
	<rect x="372" y="44.6" class="st11" width="76.1" height="35.9"/>
	<rect x="448.2" y="44.6" class="st11" width="76.1" height="35.9"/>
	<rect x="524.3" y="44.6" class="st11" width="76.1" height="35.9"/>
	<rect x="600.4" y="44.6" class="st11" width="76.1" height="35.9"/>
	<rect x="676.5" y="44.6" class="st11" width="76.1" height="35.9"/>
	<rect x="752.6" y="44.6" class="st11" width="76.1" height="35.9"/>
	<rect x="828.7" y="44.6" class="st11" width="76.1" height="35.9"/>
	<rect x="372" y="80.6" class="st12" width="76.1" height="35.9"/>
	<rect x="448.2" y="80.6" class="st12" width="76.1" height="35.9"/>
	<rect x="524.3" y="80.6" class="st12" width="76.1" height="35.9"/>
	<rect x="600.4" y="80.6" class="st12" width="76.1" height="35.9"/>
	<rect x="676.5" y="80.6" class="st12" width="76.1" height="35.9"/>
	<rect x="752.6" y="80.6" class="st12" width="76.1" height="35.9"/>
	<rect x="828.7" y="80.6" class="st12" width="76.1" height="35.9"/>
	<rect x="372" y="116.5" class="st11" width="76.1" height="35.9"/>
	<rect x="448.2" y="116.5" class="st11" width="76.1" height="35.9"/>
	<rect x="524.3" y="116.5" class="st11" width="76.1" height="35.9"/>
	<rect x="600.4" y="116.5" class="st11" width="76.1" height="35.9"/>
	<rect x="676.5" y="116.5" class="st11" width="76.1" height="35.9"/>
	<rect x="752.6" y="116.5" class="st11" width="76.1" height="35.9"/>
	<rect x="828.7" y="116.5" class="st11" width="76.1" height="35.9"/>
	<rect x="372" y="152.4" class="st12" width="76.1" height="35.9"/>
	<rect x="448.2" y="152.4" class="st12" width="76.1" height="35.9"/>
	<rect x="524.3" y="152.4" class="st12" width="76.1" height="35.9"/>
	<rect x="600.4" y="152.4" class="st12" width="76.1" height="35.9"/>
	<rect x="676.5" y="152.4" class="st12" width="76.1" height="35.9"/>
	<rect x="752.6" y="152.4" class="st12" width="76.1" height="35.9"/>
	<rect x="828.7" y="152.4" class="st12" width="76.1" height="35.9"/>
	<rect x="372" y="188.3" class="st11" width="76.1" height="35.9"/>
	<rect x="448.2" y="188.3" class="st11" width="76.1" height="35.9"/>
	<rect x="524.3" y="188.3" class="st11" width="76.1" height="35.9"/>
	<rect x="600.4" y="188.3" class="st11" width="76.1" height="35.9"/>
	<rect x="676.5" y="188.3" class="st11" width="76.1" height="35.9"/>
	<rect x="752.6" y="188.3" class="st11" width="76.1" height="35.9"/>
	<rect x="828.7" y="188.3" class="st11" width="76.1" height="35.9"/>
	<rect x="372" y="224.3" class="st12" width="76.1" height="35.9"/>
	<rect x="448.2" y="224.3" class="st12" width="76.1" height="35.9"/>
	<rect x="524.3" y="224.3" class="st12" width="76.1" height="35.9"/>
	<rect x="600.4" y="224.3" class="st12" width="76.1" height="35.9"/>
	<rect x="676.5" y="224.3" class="st12" width="76.1" height="35.9"/>
	<rect x="752.6" y="224.3" class="st12" width="76.1" height="35.9"/>
	<rect x="828.7" y="224.3" class="st12" width="76.1" height="35.9"/>
	<rect x="372" y="260.2" class="st11" width="76.1" height="35.9"/>
	<rect x="448.2" y="260.2" class="st11" width="76.1" height="35.9"/>
	<rect x="524.3" y="260.2" class="st11" width="76.1" height="35.9"/>
	<rect x="600.4" y="260.2" class="st11" width="76.1" height="35.9"/>
	<rect x="676.5" y="260.2" class="st11" width="76.1" height="35.9"/>
	<rect x="752.6" y="260.2" class="st11" width="76.1" height="35.9"/>
	<rect x="828.7" y="260.2" class="st11" width="76.1" height="35.9"/>
	<line class="st13" x1="448.2" y1="8.2" x2="448.2" y2="296.6"/>
	<line class="st13" x1="524.3" y1="8.2" x2="524.3" y2="296.6"/>
	<line class="st13" x1="600.4" y1="8.2" x2="600.4" y2="296.6"/>
	<line class="st13" x1="676.5" y1="8.2" x2="676.5" y2="296.6"/>
	<line class="st13" x1="752.6" y1="8.2" x2="752.6" y2="296.6"/>
	<line class="st13" x1="828.7" y1="8.2" x2="828.7" y2="296.6"/>
	<line class="st14" x1="371.5" y1="44.6" x2="905.3" y2="44.6"/>
	<line class="st13" x1="371.5" y1="80.6" x2="905.3" y2="80.6"/>
	<line class="st13" x1="371.5" y1="116.5" x2="905.3" y2="116.5"/>
	<line class="st13" x1="371.5" y1="152.4" x2="905.3" y2="152.4"/>
	<line class="st13" x1="371.5" y1="188.3" x2="905.3" y2="188.3"/>
	<line class="st13" x1="371.5" y1="224.3" x2="905.3" y2="224.3"/>
	<line class="st13" x1="371.5" y1="260.2" x2="905.3" y2="260.2"/>
	<line class="st13" x1="372" y1="8.2" x2="372" y2="296.6"/>
	<line class="st13" x1="904.8" y1="8.2" x2="904.8" y2="296.6"/>
	<line class="st13" x1="371.5" y1="8.7" x2="905.3" y2="8.7"/>
	<line class="st13" x1="371.5" y1="296.1" x2="905.3" y2="296.1"/>
	<g class="st6">
		<text transform="matrix(1 0 0 1 380.5493 26.4004)"><tspan x="0" y="0" class="st7 st8 st9">i</tspan><tspan x="4.8" y="0" class="st7 st8 st9">d</tspan></text>
	</g>
	<g class="st6">
		<text transform="matrix(1 0 0 1 456.6592 26.4004)"><tspan x="0" y="0" class="st7 st8 st9">na</tspan><tspan x="19.4" y="0" class="st7 st8 st9">m</tspan><tspan x="34.2" y="0" class="st7 st8 st9">e</tspan></text>
	</g>
	<g class="st6">
		<text transform="matrix(1 0 0 1 532.7695 26.4004)"><tspan x="0" y="0" class="st7 st8 st9">p</tspan><tspan x="9.8" y="0" class="st7 st8 st9">a</tspan><tspan x="19.1" y="0" class="st7 st8 st9">r</tspan><tspan x="26.1" y="0" class="st7 st8 st9">e</tspan><tspan x="35.4" y="0" class="st7 st8 st9">n</tspan><tspan x="45.4" y="0" class="st7 st8 st9">t</tspan></text>
	</g>
	<g class="st6">
		<text transform="matrix(1 0 0 1 608.8789 26.4004)"><tspan x="0" y="0" class="st7 st8 st9">l</tspan><tspan x="4.8" y="0" class="st7 st8 st9">e</tspan><tspan x="14" y="0" class="st7 st8 st9">n</tspan><tspan x="24" y="0" class="st7 st8 st9">g</tspan><tspan x="33.8" y="0" class="st7 st8 st9">th</tspan></text>
	</g>
	<g class="st6">
		<text transform="matrix(1 0 0 1 684.9883 26.4004)"><tspan x="0" y="0" class="st7 st8 st9">l</tspan><tspan x="4.8" y="0" class="st7 st8 st9">ef</tspan><tspan x="19.9" y="0" class="st7 st8 st9">t</tspan></text>
	</g>
	<g class="st6">
		<text transform="matrix(1 0 0 1 761.0986 26.4004)"><tspan x="0" y="0" class="st7 st8 st9">r</tspan><tspan x="7" y="0" class="st7 st8 st9">i</tspan><tspan x="11.7" y="0" class="st7 st8 st9">g</tspan><tspan x="21.5" y="0" class="st7 st8 st9">h</tspan><tspan x="31.5" y="0" class="st7 st8 st9">t</tspan></text>
	</g>
	<g class="st6">
		<text transform="matrix(1 0 0 1 837.208 26.4004)"><tspan x="0" y="0" class="st7 st8 st9">h</tspan><tspan x="10" y="0" class="st7 st8 st9">e</tspan><tspan x="19.2" y="0" class="st7 st8 st9">ig</tspan><tspan x="33.8" y="0" class="st7 st8 st9">h</tspan><tspan x="43.7" y="0" class="st7 st8 st9">t</tspan></text>
	</g>
	<g class="st6">
		<text transform="matrix(1 0 0 1 380.5493 68.1602)" class="st15 st9">2</text>
	</g>
	<g class="st6">
		<text transform="matrix(1 0 0 1 456.6592 68.1602)" class="st15 st9">1</text>
	</g>
	<g class="st6">
		<text transform="matrix(1 0 0 1 532.7695 68.1602)" class="st15 st9">1</text>
	</g>
	<g class="st6">
		<text transform="matrix(1 0 0 1 608.8789 68.1602)"><tspan x="0" y="0" class="st15 st9">1</tspan><tspan x="8.9" y="0" class="st15 st9">0</tspan></text>
	</g>
	<g class="st6">
		<text transform="matrix(1 0 0 1 684.9883 68.1602)"><tspan x="0" y="0" class="st15 st9">n</tspan><tspan x="8.9" y="0" class="st15 st9">3</tspan></text>
	</g>
	<g class="st6">
		<text transform="matrix(1 0 0 1 761.0986 68.1602)"><tspan x="0" y="0" class="st15 st9">0</tspan><tspan x="8.9" y="0" class="st15 st9">.</tspan><tspan x="14" y="0" class="st15 st9">0</tspan></text>
	</g>
	<g class="st6">
		<text transform="matrix(1 0 0 1 837.208 68.1602)"><tspan x="0" y="0" class="st15 st9">0</tspan><tspan x="8.9" y="0" class="st15 st9">.</tspan><tspan x="14" y="0" class="st15 st9">0</tspan></text>
	</g>
	<g class="st6">
		<text transform="matrix(1 0 0 1 380.5493 104.1602)" class="st15 st9">3</text>
	</g>
	<g class="st6">
		<text transform="matrix(1 0 0 1 456.6592 104.1602)" class="st15 st9">2</text>
	</g>
	<g class="st6">
		<text transform="matrix(1 0 0 1 532.7695 104.1602)" class="st15 st9">2</text>
	</g>
	<g class="st6">
		<text transform="matrix(1 0 0 1 608.8789 104.1602)" class="st15 st9">5</text>
	</g>
	<g class="st6">
		<text transform="matrix(1 0 0 1 684.9883 104.1602)"><tspan x="0" y="0" class="st15 st9">n</tspan><tspan x="8.9" y="0" class="st15 st9">1</tspan></text>
	</g>
	<g class="st6">
		<text transform="matrix(1 0 0 1 761.0986 104.1602)"><tspan x="0" y="0" class="st15 st9">0</tspan><tspan x="8.9" y="0" class="st15 st9">.</tspan><tspan x="14" y="0" class="st15 st9">9</tspan></text>
	</g>
	<g class="st6">
		<text transform="matrix(1 0 0 1 837.208 104.1602)"><tspan x="0" y="0" class="st15 st9">0</tspan><tspan x="8.9" y="0" class="st15 st9">.</tspan><tspan x="14" y="0" class="st15 st9">9</tspan></text>
	</g>
	<g class="st6">
		<text transform="matrix(1 0 0 1 380.5493 139.9199)" class="st15 st9">4</text>
	</g>
	<g class="st6">
		<text transform="matrix(1 0 0 1 456.6592 139.9199)" class="st15 st9">3</text>
	</g>
	<g class="st6">
		<text transform="matrix(1 0 0 1 532.7695 139.9199)" class="st15 st9">3</text>
	</g>
	<g class="st6">
		<text transform="matrix(1 0 0 1 608.8789 139.9199)" class="st15 st9">3</text>
	</g>
	<g class="st6">
		<text transform="matrix(1 0 0 1 684.9883 139.9199)" class="st15 st9">C</text>
	</g>
	<g class="st6">
		<text transform="matrix(1 0 0 1 761.0986 139.9199)"><tspan x="0" y="0" class="st15 st9">0</tspan><tspan x="8.9" y="0" class="st15 st9">.</tspan><tspan x="14" y="0" class="st15 st9">6</tspan></text>
	</g>
	<g class="st6">
		<text transform="matrix(1 0 0 1 837.208 139.9199)"><tspan x="0" y="0" class="st15 st9">1</tspan><tspan x="8.9" y="0" class="st15 st9">.</tspan><tspan x="14" y="0" class="st15 st9">5</tspan></text>
	</g>
	<g class="st6">
		<text transform="matrix(1 0 0 1 380.5493 175.9199)" class="st15 st9">5</text>
	</g>
	<g class="st6">
		<text transform="matrix(1 0 0 1 456.6592 175.9199)" class="st15 st9">3</text>
	</g>
	<g class="st6">
		<text transform="matrix(1 0 0 1 532.7695 175.9199)" class="st15 st9">4</text>
	</g>
	<g class="st6">
		<text transform="matrix(1 0 0 1 608.8789 175.9199)" class="st15 st9">4</text>
	</g>
	<g class="st6">
		<text transform="matrix(1 0 0 1 684.9883 175.9199)" class="st15 st9">D</text>
	</g>
	<g class="st6">
		<text transform="matrix(1 0 0 1 761.0986 175.9199)"><tspan x="0" y="0" class="st15 st9">0</tspan><tspan x="8.9" y="0" class="st15 st9">.</tspan><tspan x="14" y="0" class="st15 st9">8</tspan></text>
	</g>
	<g class="st6">
		<text transform="matrix(1 0 0 1 837.208 175.9199)"><tspan x="0" y="0" class="st15 st9">1</tspan><tspan x="8.9" y="0" class="st15 st9">.</tspan><tspan x="14" y="0" class="st15 st9">7</tspan></text>
	</g>
	<g class="st6">
		<text transform="matrix(1 0 0 1 380.5493 211.9199)" class="st15 st9">6</text>
	</g>
	<g class="st6">
		<text transform="matrix(1 0 0 1 456.6592 211.9199)" class="st15 st9">2</text>
	</g>
	<g class="st6">
		<text transform="matrix(1 0 0 1 532.7695 211.9199)" class="st15 st9">6</text>
	</g>
	<g class="st6">
		<text transform="matrix(1 0 0 1 608.8789 211.9199)" class="st15 st9">9</text>
	</g>
	<g class="st6">
		<text transform="matrix(1 0 0 1 684.9883 211.9199)"><tspan x="0" y="0" class="st15 st9">n</tspan><tspan x="8.9" y="0" class="st15 st9">2</tspan></text>
	</g>
	<g class="st6">
		<text transform="matrix(1 0 0 1 761.0986 211.9199)"><tspan x="0" y="0" class="st15 st9">0</tspan><tspan x="8.9" y="0" class="st15 st9">.</tspan><tspan x="14" y="0" class="st15 st9">6</tspan></text>
	</g>
	<g class="st6">
		<text transform="matrix(1 0 0 1 837.208 211.9199)"><tspan x="0" y="0" class="st15 st9">0</tspan><tspan x="8.9" y="0" class="st15 st9">.</tspan><tspan x="14" y="0" class="st15 st9">6</tspan></text>
	</g>
	<g class="st6">
		<text transform="matrix(1 0 0 1 380.5493 247.9199)" class="st15 st9">7</text>
	</g>
	<g class="st6">
		<text transform="matrix(1 0 0 1 456.6592 247.9199)" class="st15 st9">6</text>
	</g>
	<g class="st6">
		<text transform="matrix(1 0 0 1 532.7695 247.9199)" class="st15 st9">7</text>
	</g>
	<g class="st6">
		<text transform="matrix(1 0 0 1 608.8789 247.9199)" class="st15 st9">7</text>
	</g>
	<g class="st6">
		<text transform="matrix(1 0 0 1 684.9883 247.9199)" class="st15 st9">F</text>
	</g>
	<g class="st6">
		<text transform="matrix(1 0 0 1 761.0986 247.9199)"><tspan x="0" y="0" class="st15 st9">1</tspan><tspan x="8.9" y="0" class="st15 st9">.</tspan><tspan x="14" y="0" class="st15 st9">2</tspan></text>
	</g>
	<g class="st6">
		<text transform="matrix(1 0 0 1 837.208 247.9199)"><tspan x="0" y="0" class="st15 st9">1</tspan><tspan x="8.9" y="0" class="st15 st9">.</tspan><tspan x="14" y="0" class="st15 st9">8</tspan></text>
	</g>
	<g class="st6">
		<text transform="matrix(1 0 0 1 380.5493 283.6797)" class="st15 st9">8</text>
	</g>
	<g class="st6">
		<text transform="matrix(1 0 0 1 456.6592 283.6797)" class="st15 st9">6</text>
	</g>
	<g class="st6">
		<text transform="matrix(1 0 0 1 532.7695 283.6797)" class="st15 st9">8</text>
	</g>
	<g class="st6">
		<text transform="matrix(1 0 0 1 608.8789 283.6797)" class="st15 st9">8</text>
	</g>
	<g class="st6">
		<text transform="matrix(1 0 0 1 684.9883 283.6797)" class="st15 st9">G</text>
	</g>
	<g class="st6">
		<text transform="matrix(1 0 0 1 761.0986 283.6797)"><tspan x="0" y="0" class="st15 st9">1</tspan><tspan x="8.9" y="0" class="st15 st9">.</tspan><tspan x="14" y="0" class="st15 st9">0</tspan></text>
	</g>
	<g class="st6">
		<text transform="matrix(1 0 0 1 837.208 283.6797)"><tspan x="0" y="0" class="st15 st9">1</tspan><tspan x="8.9" y="0" class="st15 st9">.</tspan><tspan x="14" y="0" class="st15 st9">6</tspan></text>
	</g>
</g>
</svg>
