<svg id="Layer_1" data-name="Layer 1" xmlns="http://www.w3.org/2000/svg" xmlns:xlink="http://www.w3.org/1999/xlink" viewBox="0 0 919 309"><defs><style>.cls-1,.cls-12,.cls-13,.cls-5,.cls-7{fill:none;}.cls-2{clip-path:url(#clip-path);}.cls-3{clip-path:url(#clip-path-2);}.cls-15,.cls-16,.cls-17,.cls-4,.cls-8{fill:#fff;}.cls-5{stroke:#4472c4;}.cls-5,.cls-7{stroke-miterlimit:8;stroke-width:6px;}.cls-6{fill:#4472c4;}.cls-7{stroke:#2f528f;}.cls-15,.cls-16,.cls-17,.cls-21,.cls-8{font-size:14px;}.cls-15,.cls-16,.cls-17,.cls-8{font-family:Verdana-Bold, Verdana;font-weight:700;}.cls-9{letter-spacing:0em;}.cls-10{fill:#cfd5ea;}.cls-11{fill:#e9ebf5;}.cls-12,.cls-13{stroke:#fff;stroke-linejoin:round;}.cls-13{stroke-width:3px;}.cls-14{letter-spacing:0em;}.cls-15,.cls-18{letter-spacing:0em;}.cls-16{letter-spacing:0em;}.cls-17{letter-spacing:0em;}.cls-19{letter-spacing:0em;}.cls-20{letter-spacing:0em;}.cls-21{font-family:Verdana, Verdana;}.cls-22{letter-spacing:0em;}.cls-23{letter-spacing:0em;}</style><clipPath id="clip-path"><rect class="cls-1" x="-24" y="-29" width="959.76" height="540"/></clipPath><clipPath id="clip-path-2"><rect class="cls-1" x="-24" y="-29" width="960" height="540"/></clipPath></defs><title>fig1</title><g class="cls-2"><g class="cls-3"><rect class="cls-4" x="-24" y="-29" width="959.76" height="540"/></g></g><g class="cls-3"><rect class="cls-4" x="-24" y="-29" width="960" height="540"/><polyline class="cls-5" points="35.8 133.67 35.8 166.91 59.7 166.91"/><polyline class="cls-5" points="108.66 166.91 132.56 166.91 132.56 102.82"/><polyline class="cls-5" points="229.32 58.24 229.32 198.34 253.22 198.34"/><polyline class="cls-5" points="302.19 198.34 326.09 198.34 326.09 108.53"/><polyline class="cls-5" points="84.18 191.39 84.18 272.62 156.46 272.62"/><polyline class="cls-5" points="205.42 272.62 277.7 272.62 277.7 222.82"/><circle class="cls-6" cx="84.18" cy="166.91" r="24.48"/><circle class="cls-7" cx="84.18" cy="166.91" r="24.48"/><text class="cls-8" transform="translate(74.18 172.6)"><tspan class="cls-9">n</tspan><tspan x="9.99" y="0">1</tspan></text><circle class="cls-6" cx="35.8" cy="109.19" r="24.48"/><circle class="cls-7" cx="35.8" cy="109.19" r="24.48"/><text class="cls-8" transform="translate(30.74 114.76)">C</text><circle class="cls-6" cx="132.56" cy="78.34" r="24.48"/><circle class="cls-7" cx="132.56" cy="78.34" r="24.48"/><text class="cls-8" transform="translate(126.75 84.04)">D</text><circle class="cls-6" cx="180.94" cy="272.62" r="24.48"/><circle class="cls-7" cx="180.94" cy="272.62" r="24.48"/><text class="cls-8" transform="translate(170.94 278.2)"><tspan class="cls-9">n</tspan><tspan x="9.99" y="0">3</tspan></text><circle class="cls-6" cx="229.32" cy="33.77" r="24.48"/><circle class="cls-7" cx="229.32" cy="33.77" r="24.48"/><text class="cls-8" transform="translate(224.76 39.4)">F</text><circle class="cls-6" cx="277.7" cy="198.34" r="24.48"/><circle class="cls-7" cx="277.7" cy="198.34" r="24.48"/><text class="cls-8" transform="translate(267.7 204.04)"><tspan class="cls-9">n</tspan><tspan x="9.99" y="0">2</tspan></text><circle class="cls-6" cx="326.09" cy="84.05" r="24.48"/><circle class="cls-7" cx="326.09" cy="84.05" r="24.48"/><text class="cls-8" transform="translate(320.4 89.56)">G</text><rect class="cls-6" x="375.05" y="9.7" width="76.11" height="35.93"/><rect class="cls-6" x="451.16" y="9.7" width="76.11" height="35.93"/><rect class="cls-6" x="527.27" y="9.7" width="76.11" height="35.93"/><rect class="cls-6" x="603.38" y="9.7" width="76.11" height="35.93"/><rect class="cls-6" x="679.48" y="9.7" width="76.11" height="35.93"/><rect class="cls-6" x="755.59" y="9.7" width="76.11" height="35.93"/><rect class="cls-6" x="831.7" y="9.7" width="76.11" height="35.93"/><rect class="cls-10" x="375.05" y="45.63" width="76.11" height="35.92"/><rect class="cls-10" x="451.16" y="45.63" width="76.11" height="35.92"/><rect class="cls-10" x="527.27" y="45.63" width="76.11" height="35.92"/><rect class="cls-10" x="603.38" y="45.63" width="76.11" height="35.92"/><rect class="cls-10" x="679.48" y="45.63" width="76.11" height="35.92"/><rect class="cls-10" x="755.59" y="45.63" width="76.11" height="35.92"/><rect class="cls-10" x="831.7" y="45.63" width="76.11" height="35.92"/><rect class="cls-11" x="375.05" y="81.55" width="76.11" height="35.92"/><rect class="cls-11" x="451.16" y="81.55" width="76.11" height="35.92"/><rect class="cls-11" x="527.27" y="81.55" width="76.11" height="35.92"/><rect class="cls-11" x="603.38" y="81.55" width="76.11" height="35.92"/><rect class="cls-11" x="679.48" y="81.55" width="76.11" height="35.92"/><rect class="cls-11" x="755.59" y="81.55" width="76.11" height="35.92"/><rect class="cls-11" x="831.7" y="81.55" width="76.11" height="35.92"/><rect class="cls-10" x="375.05" y="117.48" width="76.11" height="35.93"/><rect class="cls-10" x="451.16" y="117.48" width="76.11" height="35.93"/><rect class="cls-10" x="527.27" y="117.48" width="76.11" height="35.93"/><rect class="cls-10" x="603.38" y="117.48" width="76.11" height="35.93"/><rect class="cls-10" x="679.48" y="117.48" width="76.11" height="35.93"/><rect class="cls-10" x="755.59" y="117.48" width="76.11" height="35.93"/><rect class="cls-10" x="831.7" y="117.48" width="76.11" height="35.93"/><rect class="cls-11" x="375.05" y="153.4" width="76.11" height="35.92"/><rect class="cls-11" x="451.16" y="153.4" width="76.11" height="35.92"/><rect class="cls-11" x="527.27" y="153.4" width="76.11" height="35.92"/><rect class="cls-11" x="603.38" y="153.4" width="76.11" height="35.92"/><rect class="cls-11" x="679.48" y="153.4" width="76.11" height="35.92"/><rect class="cls-11" x="755.59" y="153.4" width="76.11" height="35.92"/><rect class="cls-11" x="831.7" y="153.4" width="76.11" height="35.92"/><rect class="cls-10" x="375.05" y="189.33" width="76.11" height="35.92"/><rect class="cls-10" x="451.16" y="189.33" width="76.11" height="35.92"/><rect class="cls-10" x="527.27" y="189.33" width="76.11" height="35.92"/><rect class="cls-10" x="603.38" y="189.33" width="76.11" height="35.92"/><rect class="cls-10" x="679.48" y="189.33" width="76.11" height="35.92"/><rect class="cls-10" x="755.59" y="189.33" width="76.11" height="35.92"/><rect class="cls-10" x="831.7" y="189.33" width="76.11" height="35.92"/><rect class="cls-11" x="375.05" y="225.25" width="76.11" height="35.93"/><rect class="cls-11" x="451.16" y="225.25" width="76.11" height="35.93"/><rect class="cls-11" x="527.27" y="225.25" width="76.11" height="35.93"/><rect class="cls-11" x="603.38" y="225.25" width="76.11" height="35.93"/><rect class="cls-11" x="679.48" y="225.25" width="76.11" height="35.93"/><rect class="cls-11" x="755.59" y="225.25" width="76.11" height="35.93"/><rect class="cls-11" x="831.7" y="225.25" width="76.11" height="35.93"/><rect class="cls-10" x="375.05" y="261.18" width="76.11" height="35.92"/><rect class="cls-10" x="451.16" y="261.18" width="76.11" height="35.92"/><rect class="cls-10" x="527.27" y="261.18" width="76.11" height="35.92"/><rect class="cls-10" x="603.38" y="261.18" width="76.11" height="35.92"/><rect class="cls-10" x="679.48" y="261.18" width="76.11" height="35.92"/><rect class="cls-10" x="755.59" y="261.18" width="76.11" height="35.92"/><rect class="cls-10" x="831.7" y="261.18" width="76.11" height="35.92"/><line class="cls-12" x1="451.16" y1="9.2" x2="451.16" y2="297.6"/><line class="cls-12" x1="527.27" y1="9.2" x2="527.27" y2="297.6"/><line class="cls-12" x1="603.37" y1="9.2" x2="603.37" y2="297.6"/><line class="cls-12" x1="679.48" y1="9.2" x2="679.48" y2="297.6"/><line class="cls-12" x1="755.59" y1="9.2" x2="755.59" y2="297.6"/><line class="cls-12" x1="831.7" y1="9.2" x2="831.7" y2="297.6"/><line class="cls-13" x1="374.55" y1="45.63" x2="908.31" y2="45.63"/><line class="cls-12" x1="374.55" y1="81.55" x2="908.31" y2="81.55"/><line class="cls-12" x1="374.55" y1="117.48" x2="908.31" y2="117.48"/><line class="cls-12" x1="374.55" y1="153.4" x2="908.31" y2="153.4"/><line class="cls-12" x1="374.55" y1="189.33" x2="908.31" y2="189.33"/><line class="cls-12" x1="374.55" y1="225.25" x2="908.31" y2="225.25"/><line class="cls-12" x1="374.55" y1="261.18" x2="908.31" y2="261.18"/><line class="cls-12" x1="375.05" y1="9.2" x2="375.05" y2="297.6"/><line class="cls-12" x1="907.81" y1="9.2" x2="907.81" y2="297.6"/><line class="cls-12" x1="374.55" y1="9.7" x2="908.31" y2="9.7"/><line class="cls-12" x1="374.55" y1="297.1" x2="908.31" y2="297.1"/><text class="cls-8" transform="translate(383.55 27.4)"><tspan class="cls-14">i</tspan><tspan x="4.76" y="0">d</tspan></text><text class="cls-15" transform="translate(459.66 27.4)">parent</text><text class="cls-16" transform="translate(535.77 27.4)">left</text><text class="cls-16" transform="translate(611.88 27.4)">right</text><text class="cls-16" transform="translate(687.99 27.4)">name</text><text class="cls-17" transform="translate(764.1 27.4)">length</text><text class="cls-8" transform="translate(840.21 27.4)"><tspan class="cls-18">h</tspan><tspan class="cls-19" x="9.99" y="0">e</tspan><tspan class="cls-20" x="19.24" y="0">ig</tspan><tspan class="cls-18" x="33.76" y="0">h</tspan><tspan x="43.75" y="0">t</tspan></text><text class="cls-21" transform="translate(383.55 69.16)">2</text><text class="cls-21" transform="translate(459.66 69.16)">1</text><text class="cls-21" transform="translate(535.77 69.16)">1</text><text class="cls-21" transform="translate(611.88 69.16)"><tspan class="cls-22">1</tspan><tspan x="8.89" y="0">0</tspan></text><text class="cls-21" transform="translate(687.99 69.16)"><tspan class="cls-18">n</tspan><tspan x="8.87" y="0">3</tspan></text><text class="cls-21" transform="translate(764.1 69.16)"><tspan class="cls-22">0</tspan><tspan class="cls-23" x="8.89" y="0">.</tspan><tspan x="14.01" y="0">0</tspan></text><text class="cls-21" transform="translate(840.21 69.16)"><tspan class="cls-22">0</tspan><tspan class="cls-23" x="8.89" y="0">.</tspan><tspan x="14.01" y="0">0</tspan></text><text class="cls-21" transform="translate(383.55 105.16)">3</text><text class="cls-21" transform="translate(459.66 105.16)">2</text><text class="cls-21" transform="translate(535.77 105.16)">2</text><text class="cls-21" transform="translate(611.88 105.16)">5</text><text class="cls-21" transform="translate(687.99 105.16)"><tspan class="cls-18">n</tspan><tspan x="8.87" y="0">1</tspan></text><text class="cls-21" transform="translate(764.1 105.16)"><tspan class="cls-22">0</tspan><tspan class="cls-23" x="8.89" y="0">.</tspan><tspan x="14.01" y="0">9</tspan></text><text class="cls-21" transform="translate(840.21 105.16)"><tspan class="cls-22">0</tspan><tspan class="cls-23" x="8.89" y="0">.</tspan><tspan x="14.01" y="0">9</tspan></text><text class="cls-21" transform="translate(383.55 140.92)">4</text><text class="cls-21" transform="translate(459.66 140.92)">3</text><text class="cls-21" transform="translate(535.77 140.92)">3</text><text class="cls-21" transform="translate(611.88 140.92)">3</text><text class="cls-21" transform="translate(687.99 140.92)">C</text><text class="cls-21" transform="translate(764.1 140.92)"><tspan class="cls-22">0</tspan><tspan class="cls-23" x="8.89" y="0">.</tspan><tspan x="14.01" y="0">6</tspan></text><text class="cls-21" transform="translate(840.21 140.92)"><tspan class="cls-22">1</tspan><tspan class="cls-23" x="8.89" y="0">.</tspan><tspan x="14.01" y="0">5</tspan></text><text class="cls-21" transform="translate(383.55 176.92)">5</text><text class="cls-21" transform="translate(459.66 176.92)">3</text><text class="cls-21" transform="translate(535.77 176.92)">4</text><text class="cls-21" transform="translate(611.88 176.92)">4</text><text class="cls-21" transform="translate(687.99 176.92)">D</text><text class="cls-21" transform="translate(764.1 176.92)"><tspan class="cls-22">0</tspan><tspan class="cls-23" x="8.89" y="0">.</tspan><tspan x="14.01" y="0">8</tspan></text><text class="cls-21" transform="translate(840.21 176.92)"><tspan class="cls-22">1</tspan><tspan class="cls-23" x="8.89" y="0">.</tspan><tspan x="14.01" y="0">7</tspan></text><text class="cls-21" transform="translate(383.55 212.92)">6</text><text class="cls-21" transform="translate(459.66 212.92)">2</text><text class="cls-21" transform="translate(535.77 212.92)">6</text><text class="cls-21" transform="translate(611.88 212.92)">9</text><text class="cls-21" transform="translate(687.99 212.92)"><tspan class="cls-18">n</tspan><tspan x="8.87" y="0">2</tspan></text><text class="cls-21" transform="translate(764.1 212.92)"><tspan class="cls-22">0</tspan><tspan class="cls-23" x="8.89" y="0">.</tspan><tspan x="14.01" y="0">6</tspan></text><text class="cls-21" transform="translate(840.21 212.92)"><tspan class="cls-22">0</tspan><tspan class="cls-23" x="8.89" y="0">.</tspan><tspan x="14.01" y="0">6</tspan></text><text class="cls-21" transform="translate(383.55 248.92)">7</text><text class="cls-21" transform="translate(459.66 248.92)">6</text><text class="cls-21" transform="translate(535.77 248.92)">7</text><text class="cls-21" transform="translate(611.88 248.92)">7</text><text class="cls-21" transform="translate(687.99 248.92)">F</text><text class="cls-21" transform="translate(764.1 248.92)"><tspan class="cls-22">1</tspan><tspan class="cls-23" x="8.89" y="0">.</tspan><tspan x="14.01" y="0">2</tspan></text><text class="cls-21" transform="translate(840.21 248.92)"><tspan class="cls-22">1</tspan><tspan class="cls-23" x="8.89" y="0">.</tspan><tspan x="14.01" y="0">8</tspan></text><text class="cls-21" transform="translate(383.55 284.68)">8</text><text class="cls-21" transform="translate(459.66 284.68)">6</text><text class="cls-21" transform="translate(535.77 284.68)">8</text><text class="cls-21" transform="translate(611.88 284.68)">8</text><text class="cls-21" transform="translate(687.99 284.68)">G</text><text class="cls-21" transform="translate(764.1 284.68)"><tspan class="cls-22">1</tspan><tspan class="cls-23" x="8.89" y="0">.</tspan><tspan x="14.01" y="0">0</tspan></text><text class="cls-21" transform="translate(840.21 284.68)"><tspan class="cls-22">1</tspan><tspan class="cls-23" x="8.89" y="0">.</tspan><tspan x="14.01" y="0">6</tspan></text></g></svg>