<?xml version="1.0" encoding="utf-8"?>
<!-- Generator: Adobe Illustrator 15.0.2, SVG Export Plug-In . SVG Version: 6.00 Build 0)  -->
<!DOCTYPE svg PUBLIC "-//W3C//DTD SVG 1.1//EN" "http://www.w3.org/Graphics/SVG/1.1/DTD/svg11.dtd">
<svg version="1.1" id="Layer_1" xmlns="http://www.w3.org/2000/svg" xmlns:xlink="http://www.w3.org/1999/xlink" x="0px" y="0px"
	 width="597.954px" height="421.333px" viewBox="0 0 597.954 421.333" enable-background="new 0 0 597.954 421.333"
	 xml:space="preserve">
<rect x="42.291" y="5.006" fill-rule="evenodd" clip-rule="evenodd" fill="#FFFFFF" width="554.944" height="400.96"/>
<line fill="none" stroke="#000000" stroke-width="0.25" stroke-linejoin="round" stroke-miterlimit="10" x1="42.291" y1="405.966" x2="42.291" y2="5.006"/>
<path stroke="#000000" stroke-width="0.25" stroke-miterlimit="10" d="M39.293,5h2.998 M39.293,45.08h2.998 M39.293,85.22h2.998
	 M39.293,125.3h2.998 M39.293,165.38h2.998 M39.293,205.46h2.998 M39.293,245.6h2.998 M39.293,285.68h2.998 M39.293,325.76h2.998
	 M39.293,365.84h2.998 M39.293,405.966h2.998"/>
<line fill="none" stroke="#000000" stroke-width="0.25" stroke-miterlimit="10" x1="42.291" y1="365.87" x2="597.235" y2="365.87"/>
<g>
	<defs>
		<rect id="SVGID_1_" x="42.233" y="5" width="555.72" height="401.7"/>
	</defs>
	<clipPath id="SVGID_2_">
		<use xlink:href="#SVGID_1_"  overflow="visible"/>
	</clipPath>
	
		<path clip-path="url(#SVGID_2_)" fill="none" stroke="#CD665F" stroke-width="0.25" stroke-linecap="round" stroke-linejoin="round" stroke-miterlimit="10" d="
		M533.213,78.02l42.66-26.76 M490.494,93.92l42.72-15.9 M447.833,112.22l42.66-18.3 M405.114,120.8l42.72-8.58 M362.454,129.5
		l42.66-8.7 M319.733,131.9l42.72-2.4 M277.074,133.82l42.66-1.92 M234.414,134.42l42.66-0.6 M191.693,135.2l42.72-0.78
		 M149.034,135.32l42.66-0.12 M106.313,135.32h42.72 M63.653,135.26l42.66,0.06"/>
</g>
<g>
	<defs>
		<rect id="SVGID_3_" x="42.233" y="5" width="555.72" height="401.7"/>
	</defs>
	<clipPath id="SVGID_4_">
		<use xlink:href="#SVGID_3_"  overflow="visible"/>
	</clipPath>
	
		<path clip-path="url(#SVGID_4_)" fill="none" stroke="#B85750" stroke-width="0.25" stroke-linecap="round" stroke-linejoin="round" stroke-miterlimit="10" d="
		M533.213,78.02l42.66-26.16 M490.494,93.92l42.72-15.9 M447.833,112.22l42.66-18.3 M405.114,120.8l42.72-8.58 M362.454,129.44
		l42.66-8.64 M319.733,131.84l42.72-2.4 M277.074,134l42.66-2.16 M234.414,134.54l42.66-0.54 M191.693,135.32l42.72-0.78
		 M149.034,135.2l42.66,0.12 M106.313,135.44l42.72-0.24 M63.653,135.5l42.66-0.06"/>
</g>
<path fill="none" stroke="#CD665F" stroke-width="0.25" stroke-linecap="round" stroke-linejoin="round" stroke-miterlimit="10" d="
	M533.213,77.3l42.66-25.86 M490.494,92.78l42.72-15.48 M447.833,111.8l42.66-19.02 M405.114,119.78l42.72-7.98 M362.454,126.98
	l42.66-7.2 M319.733,131.24l42.72-4.26 M277.074,132.86l42.66-1.62 M234.414,132.44l42.66,0.42 M191.693,134.48l42.72-2.04
	 M149.034,134.24l42.66,0.24 M106.313,134.516l42.72-0.276 M63.653,132.92l42.66,1.596"/>
<rect x="42.233" y="5" fill="none" width="555.72" height="401.7"/>
<g>
	<defs>
		<rect id="SVGID_5_" x="42.233" y="5" width="555.72" height="401.7"/>
	</defs>
	<clipPath id="SVGID_6_">
		<use xlink:href="#SVGID_5_"  overflow="visible"/>
	</clipPath>
	
		<path clip-path="url(#SVGID_6_)" fill="none" stroke="#275D90" stroke-width="0.25" stroke-linecap="round" stroke-linejoin="round" stroke-miterlimit="10" d="
		M533.213,117.68l42.66-39.72 M490.494,154.52l42.72-36.84 M447.833,210.56l42.66-56.04 M405.114,239.96l42.72-29.4 M362.454,255.68
		l42.66-15.72 M319.733,296.06l42.72-40.38 M277.074,311.78l42.66-15.721 M234.414,323.36l42.66-11.58 M191.693,351.68l42.72-28.319
		 M149.034,363.14l42.66-11.46 M106.313,371.42l42.72-8.28 M63.653,346.88l42.66,24.54"/>
</g>
<g>
	<defs>
		<rect id="SVGID_7_" x="42.233" y="5" width="555.72" height="401.7"/>
	</defs>
	<clipPath id="SVGID_8_">
		<use xlink:href="#SVGID_7_"  overflow="visible"/>
	</clipPath>
	
		<path clip-path="url(#SVGID_8_)" fill="none" stroke="#275D90" stroke-width="0.25" stroke-linecap="round" stroke-linejoin="round" stroke-miterlimit="10" d="
		M533.213,114.8l42.66-38.88 M490.494,166.4l42.72-51.6 M447.833,212.36l42.66-45.96 M405.114,246.56l42.72-34.2 M362.454,274.52
		l42.66-27.96 M319.733,297.38l42.72-22.86 M277.074,317.72l42.66-20.34 M234.414,338.9l42.66-21.181 M191.693,351.8l42.72-12.899
		 M149.034,366.2l42.66-14.4 M106.313,376.878l42.72-10.678 M63.653,372.02l42.66,4.858"/>
</g>
<g>
	<defs>
		<rect id="SVGID_9_" x="42.233" y="5" width="555.72" height="401.7"/>
	</defs>
	<clipPath id="SVGID_10_">
		<use xlink:href="#SVGID_9_"  overflow="visible"/>
	</clipPath>
	
		<path clip-path="url(#SVGID_10_)" fill="none" stroke="#275D90" stroke-width="0.25" stroke-linecap="round" stroke-linejoin="round" stroke-miterlimit="10" d="
		M533.213,119.18l42.66-46.32 M490.494,165.38l42.72-46.2 M447.833,210.14l42.66-44.76 M405.114,243.98l42.72-33.84 M362.454,270.32
		l42.66-26.34 M319.733,296.9l42.72-26.58 M277.074,316.64l42.66-19.739 M234.414,335.96l42.66-19.32 M191.693,351.68l42.72-15.72
		 M149.034,365.36l42.66-13.681 M106.313,374.3l42.72-8.939 M63.653,365.24l42.66,9.06"/>
</g>
<text transform="matrix(1 0 0 1 16.4604 409.9658)" font-family="'ArialMT'" font-size="10">-0.5 </text>
<text transform="matrix(1 0 0 1 28.1304 369.8701)" font-family="'ArialMT'" font-size="10">0 </text>
<text transform="matrix(1 0 0 1 19.7905 329.7734)" font-family="'ArialMT'" font-size="10">0.5 </text>
<text transform="matrix(1 0 0 1 28.1304 289.6777)" font-family="'ArialMT'" font-size="10">1 </text>
<text transform="matrix(1 0 0 1 19.7905 249.582)" font-family="'ArialMT'" font-size="10">1.5 </text>
<text transform="matrix(1 0 0 1 28.1304 209.4854)" font-family="'ArialMT'" font-size="10">2 </text>
<text transform="matrix(1 0 0 1 19.7905 169.3896)" font-family="'ArialMT'" font-size="10">2.5 </text>
<text transform="matrix(1 0 0 1 28.1304 129.2939)" font-family="'ArialMT'" font-size="10">3 </text>
<text transform="matrix(1 0 0 1 19.7905 89.1982)" font-family="'ArialMT'" font-size="10">3.5 </text>
<text transform="matrix(1 0 0 1 27.6919 49.1016)" font-family="'ArialMT'" font-size="10">4 </text>
<text transform="matrix(1 0 0 1 19.7905 9.0059)" font-family="'ArialMT'" font-size="10">4.5 </text>
<text transform="matrix(1 0 0 1 58.0732 381.9033)" font-family="'ArialMT'" font-size="10">10 </text>
<text transform="matrix(1 0 0 1 100.7778 381.9033)" font-family="'ArialMT'" font-size="10">20 </text>
<text transform="matrix(1 0 0 1 143.4658 381.9033)" font-family="'ArialMT'" font-size="10">40 </text>
<text transform="matrix(1 0 0 1 186.1538 381.9033)" font-family="'ArialMT'" font-size="10">80 </text>
<text transform="matrix(1 0 0 1 226.0444 381.9033)" font-family="'ArialMT'" font-size="10">160 </text>
<text transform="matrix(1 0 0 1 268.8584 381.9033)" font-family="'ArialMT'" font-size="10">320 </text>
<text transform="matrix(1 0 0 1 311.5464 381.9033)" font-family="'ArialMT'" font-size="10">640 </text>
<text transform="matrix(1 0 0 1 351.3281 381.9033)" font-family="'ArialMT'" font-size="10">1280 </text>
<text transform="matrix(1 0 0 1 394.2515 381.9033)" font-family="'ArialMT'" font-size="10">2560 </text>
<text transform="matrix(1 0 0 1 436.939 381.9033)" font-family="'ArialMT'" font-size="10">5120 </text>
<text transform="matrix(1 0 0 1 476.6108 381.9033)" font-family="'ArialMT'" font-size="10">10240 </text>
<text transform="matrix(1 0 0 1 519.2993 381.9033)" font-family="'ArialMT'" font-size="10">20480 </text>
<text transform="matrix(1 0 0 1 561.9878 381.9033)" font-family="'ArialMT'" font-size="10">40960 </text>
<text transform="matrix(-1.224647e-16 -1 1 -1.224647e-16 7.9604 299.5215)" font-family="'ArialMT'" font-size="6.6667">10</text>
<text transform="matrix(-1.224647e-16 -1 1 -1.224647e-16 10.9604 292.1055)" font-family="'ArialMT'" font-size="10">log time in seconds for pruning operation </text>
<text transform="matrix(1 0 0 1 202.207 417.4658)" font-family="'ArialMT'" font-size="10">Number of randomly sampled tips to retain in subtree </text>
<text transform="matrix(1 0 0 1 62.7012 129.2939)" font-family="'ArialMT'" font-size="10">Dendropy</text>
<text transform="matrix(1 0 0 1 311.5469 314.5508)"><tspan x="0" y="0" font-family="'ArialMT'" font-size="10">DB</tspan><tspan x="13.892" y="0" font-family="'ArialMT'" font-size="10">T</tspan><tspan x="19.63" y="0" font-family="'ArialMT'" font-size="10">ree</tspan></text>
</svg>
